<?xml version="1.0" encoding="utf-8"?><!-- Uploaded to: SVG Repo, www.svgrepo.com, Generator: SVG Repo Mixer Tools -->
<svg fill="#000000" stroke="#000000" width="800px" height="800px" viewBox="0 0 24 24" xmlns="http://www.w3.org/2000/svg">
<path d="m 12 3.4815 c -4.7046 0 -8.5185 3.8139 -8.5185 8.5186 c 0 4.7046 3.8139 8.5185 8.5185 8.5185 c 4.7046 0 8.5185 -3.8139 8.5185 -8.5185 c 0 -4.7047 -3.8139 -8.5186 -8.5185 -8.5186 m -10 8.5186 c 0 -5.5229 4.4771 -10 10 -10 c 5.5228 0 10 4.4771 10 10 c 0 5.5228 -4.4772 10 -10 10 c -5.5229 0 -10 -4.4772 -10 -10 m 10 -0.7001 c -0.1384 0 -0.2738 0.0411 -0.3889 0.118 c -0.1151 0.0769 -0.2048 0.1862 -0.2578 0.3141 c -0.053 0.1279 -0.0669 0.2687 -0.0399 0.4045 c 0.0271 0.1358 0.0937 0.2605 0.1916 0.3584 c 0.0979 0.0979 0.2227 0.1646 0.3584 0.1916 c 0.1358 0.027 0.2766 0.0131 0.4045 -0.0399 c 0.1279 -0.053 0.2372 -0.1427 0.3141 -0.2578 c 0.0769 -0.1151 0.118 -0.2504 0.118 -0.3889 c 0 -0.1856 -0.0738 -0.3637 -0.205 -0.495 c -0.1313 -0.1312 -0.3093 -0.205 -0.495 -0.205 z m 0.35 -6.3 c 3.15 0 3.22 2.499 1.561 3.325 c -0.3082 0.1828 -0.5707 0.4335 -0.7672 0.7332 c -0.1965 0.2996 -0.322 0.6402 -0.3668 0.9958 c 0.3347 0.1389 0.6303 0.3576 0.861 0.637 c 2.562 -1.4 5.362 -0.847 5.362 1.659 c 0 3.15 -2.506 3.22 -3.325 1.561 c -0.1881 -0.3081 -0.443 -0.57 -0.7459 -0.7662 c -0.3029 -0.1963 -0.6461 -0.322 -1.0041 -0.3678 c -0.1406 0.3338 -0.359 0.629 -0.637 0.861 c 1.4 2.583 0.84 5.362 -1.666 5.362 c -3.122 0 -3.199 -2.506 -1.54 -3.332 c 0.3032 -0.1852 0.562 -0.4348 0.758 -0.7312 c 0.196 -0.2964 0.3244 -0.6322 0.376 -0.9838 c -0.3431 -0.1342 -0.6449 -0.3563 -0.875 -0.644 c -2.583 1.386 -5.341 0.84 -5.341 -1.659 c 0 -3.15 2.478 -3.227 3.304 -1.568 c 0.1854 0.3068 0.438 0.5676 0.7386 0.7628 c 0.3007 0.1951 0.6417 0.3197 0.9973 0.3642 c 0.1348 -0.3369 0.3571 -0.6318 0.644 -0.854 c -1.393 -2.555 -0.84 -5.355 1.652 -5.355 h 0.014 z"/>
</svg>