<?xml version="1.0" encoding="iso-8859-1"?>
<!-- Uploaded to: SVG Repo, www.svgrepo.com, Generator: SVG Repo Mixer Tools -->
<svg fill="#000000" stroke="#000000" height="800px" width="800px" version="1.1" id="Layer_1" xmlns="http://www.w3.org/2000/svg" xmlns:xlink="http://www.w3.org/1999/xlink" 
	 viewBox="0 0 512 512" xml:space="preserve">
<g>
	<g>
		<g>
			<path d="m349.867 290.133h-187.734c-4.71 0-8.533 3.823-8.533 8.533s3.823 8.533 8.533 8.533h187.733c4.71 0 8.533-3.823 8.533-8.533s-3.822-8.533-8.532-8.533m0-34.133h-187.734c-4.71 0-8.533 3.823-8.533 8.533s3.823 8.533 8.533 8.533h187.733c4.71 0 8.533-3.823 8.533-8.533s-3.822-8.533-8.532-8.533zm59.733-170.667h-25.6c-4.71 0-8.533 3.823-8.533 8.533v273.067c0 4.71 3.823 8.533 8.533 8.533s8.533-3.823 8.533-8.533v-264.533h17.067c47.053 0 85.333 38.281 85.333 85.333v119.467c0 47.053-38.281 85.333-85.333 85.333h-247.467c-4.71 0-8.533 3.823-8.533 8.533s3.823 8.533 8.533 8.533h247.467c56.465 0 102.4-45.935 102.4-102.4v-119.466c0-56.465-45.935-102.4-102.4-102.4zm-230.4-17.066c4.71 0 8.533-3.823 8.533-8.533 0-14.114 11.486-25.6 25.6-25.6h68.267c14.114 0 25.6 11.486 25.6 25.6 0 4.71 3.823 8.533 8.533 8.533s8.533-3.823 8.533-8.533c0-23.526-19.14-42.667-42.667-42.667h-68.267c-23.526 0-42.667 19.14-42.667 42.667.002 4.71 3.825 8.533 8.535 8.533zm170.667 256h-187.734c-4.71 0-8.533 3.823-8.533 8.533s3.823 8.533 8.533 8.533h187.733c4.71 0 8.533-3.823 8.533-8.533s-3.822-8.533-8.532-8.533zm0-102.4h-187.734c-4.71 0-8.533 3.823-8.533 8.533 0 4.71 3.823 8.533 8.533 8.533h187.733c4.71 0 8.533-3.823 8.533-8.533.001-4.71-3.822-8.533-8.532-8.533zm-221.867-102.4c-4.71 0-8.533 3.823-8.533 8.533v264.533h-17.067c-47.053 0-85.333-38.281-85.333-85.333v-119.467c0-47.053 38.281-85.333 85.333-85.333h247.467c4.71 0 8.533-3.823 8.533-8.533s-3.823-8.533-8.533-8.533h-247.467c-56.465-.001-102.4 45.934-102.4 102.399v119.467c0 56.465 45.935 102.4 102.4 102.4h25.6c4.71 0 8.533-3.823 8.533-8.533v-273.067c0-4.71-3.823-8.533-8.533-8.533zm221.867 238.933h-187.734c-4.71 0-8.533 3.823-8.533 8.533s3.823 8.533 8.533 8.533h187.733c4.71 0 8.533-3.823 8.533-8.533s-3.822-8.533-8.532-8.533zm-144.811 76.8c0-4.71-3.814-8.533-8.533-8.533h-.085c-4.71 0-8.491 3.823-8.491 8.533s3.866 8.533 8.576 8.533c4.719 0 8.533-3.823 8.533-8.533zm144.811-8.533c-4.71 0-8.533 3.823-8.533 8.533v17.067c0 14.114-11.486 25.6-25.6 25.6h-119.467c-14.114 0-25.6-11.486-25.6-25.6v-17.067c0-4.71-3.823-8.533-8.533-8.533-4.71 0-8.533 3.823-8.533 8.533v17.067c0 23.526 19.14 42.667 42.667 42.667h119.467c23.526 0 42.667-19.14 42.667-42.667v-17.067c-.002-4.71-3.825-8.533-8.535-8.533zm0-238.934h-187.734c-4.71 0-8.533 3.823-8.533 8.533s3.823 8.533 8.533 8.533h187.733c4.71 0 8.533-3.823 8.533-8.533s-3.822-8.533-8.532-8.533zm-25.344 247.467c0-4.71-3.814-8.533-8.533-8.533h-.085c-4.71 0-8.491 3.823-8.491 8.533s3.866 8.533 8.576 8.533c4.718 0 8.533-3.823 8.533-8.533zm25.344-315.733h-187.734c-4.71 0-8.533 3.823-8.533 8.533s3.823 8.533 8.533 8.533h187.733c4.71 0 8.533-3.823 8.533-8.533s-3.822-8.533-8.532-8.533zm0 34.133h-187.734c-4.71 0-8.533 3.823-8.533 8.533 0 4.71 3.823 8.533 8.533 8.533h187.733c4.71 0 8.533-3.823 8.533-8.533.001-4.71-3.822-8.533-8.532-8.533z"/>

		</g>
	</g>
</g>
</svg>